<?xml version="1.0" encoding="utf-8"?>
<!-- Generator: Adobe Illustrator 15.0.2, SVG Export Plug-In . SVG Version: 6.00 Build 0)  -->
<!DOCTYPE svg PUBLIC "-//W3C//DTD SVG 1.1//EN" "http://www.w3.org/Graphics/SVG/1.1/DTD/svg11.dtd">
<svg version="1.1" id="Layer_1" xmlns="http://www.w3.org/2000/svg" xmlns:xlink="http://www.w3.org/1999/xlink" x="0px" y="0px"
	 width="40px" height="31px" viewBox="0 0 40 31" enable-background="new 0 0 40 31" xml:space="preserve">
<g>
	<g>
		<polygon fill="#1599BB" points="0,9.739 5.843,0 5.843,9.739 		"/>
		<polygon fill="#136398" points="11.688,9.739 5.843,0 5.843,9.739 		"/>
		<polygon fill="#0A4F80" points="11.688,9.739 5.843,19.479 5.843,9.739 		"/>
		<polygon fill="#0280AA" points="0,9.739 5.843,19.479 5.843,9.739 		"/>
	</g>
	<g>
		<polygon fill="#4A68AB" points="6.515,20.026 12.358,10.287 12.358,20.026 		"/>
		<polygon fill="#354D9B" points="18.202,20.026 12.358,10.287 12.358,20.026 		"/>
		<polygon fill="#2B3E82" points="18.202,20.026 12.358,29.766 12.358,20.026 		"/>
		<polygon fill="#3C5496" points="6.515,20.026 12.358,29.766 12.358,20.026 		"/>
	</g>
	<g>
		<polygon fill="#C92B82" points="19.634,20.026 25.479,10.287 25.479,20.026 		"/>
		<polygon fill="#AA2350" points="31.321,20.026 25.479,10.287 25.479,20.026 		"/>
		<polygon fill="#961A42" points="31.321,20.026 25.479,29.766 25.479,20.026 		"/>
		<polygon fill="#BB1E6B" points="19.634,20.026 25.479,29.766 25.479,20.026 		"/>
	</g>
	<g>
		<polygon fill="#ED9B3B" points="13.088,9.739 18.931,0 18.931,9.739 		"/>
		<polygon fill="#E77038" points="24.774,9.739 18.931,0 18.931,9.739 		"/>
		<polygon fill="#E15C26" points="24.774,9.739 18.931,19.479 18.931,9.739 		"/>
		<polygon fill="#E88224" points="13.088,9.739 18.931,19.479 18.931,9.739 		"/>
	</g>
	<g>
		<polygon fill="#DD4142" points="26.175,9.739 32.019,0 32.019,9.739 		"/>
		<polygon fill="#C12948" points="37.862,9.739 32.019,0 32.019,9.739 		"/>
		<polygon fill="#B31F38" points="37.862,9.739 32.019,19.479 32.019,9.739 		"/>
		<polygon fill="#D33530" points="26.175,9.739 32.019,19.479 32.019,9.739 		"/>
	</g>
</g>
<g>
	<g>
		<polygon fill="#6D959A" points="0,9.739 5.843,0 5.843,9.739 		"/>
		<polygon fill="#5A8486" points="11.688,9.739 5.843,0 5.843,9.739 		"/>
		<polygon fill="#4E777D" points="11.688,9.739 5.843,19.479 5.843,9.739 		"/>
		<polygon fill="#648C94" points="0,9.739 5.843,19.479 5.843,9.739 		"/>
	</g>
	<g>
		<polygon fill="#6D959A" points="6.515,20.026 12.358,10.287 12.358,20.026 		"/>
		<polygon fill="#4E777D" points="18.202,20.026 12.358,10.287 12.358,20.026 		"/>
		<polygon fill="#4E777D" points="18.202,20.026 12.358,29.766 12.358,20.026 		"/>
		<polygon fill="#648C94" points="6.515,20.026 12.358,29.766 12.358,20.026 		"/>
	</g>
	<g>
		<polygon fill="#F27658" points="19.634,20.026 25.479,10.287 25.479,20.026 		"/>
		<polygon fill="#E85D41" points="31.321,20.026 25.479,10.287 25.479,20.026 		"/>
		<polygon fill="#E5512D" points="31.321,20.026 25.479,29.766 25.479,20.026 		"/>
		<polygon fill="#F26E46" points="19.634,20.026 25.479,29.766 25.479,20.026 		"/>
	</g>
	<g>
		<polygon fill="#FAC8BD" points="13.088,9.739 18.931,0 18.931,9.739 		"/>
		<polygon fill="#EEAB9D" points="24.774,9.739 18.931,0 18.931,9.739 		"/>
		<polygon fill="#E4A392" points="24.774,9.739 18.931,19.479 18.931,9.739 		"/>
		<polygon fill="#FAC0AF" points="13.088,9.739 18.931,19.479 18.931,9.739 		"/>
	</g>
	<g>
		<polygon fill="#F27658" points="26.175,9.739 32.019,0 32.019,9.739 		"/>
		<polygon fill="#E85D41" points="37.862,9.739 32.019,0 32.019,9.739 		"/>
		<polygon fill="#E5512D" points="37.862,9.739 32.019,19.479 32.019,9.739 		"/>
		<polygon fill="#F26E46" points="26.175,9.739 32.019,19.479 32.019,9.739 		"/>
	</g>
</g>
</svg>
