<?xml version="1.0" standalone="no"?>
<!DOCTYPE svg PUBLIC "-//W3C//DTD SVG 1.1//EN" "http://www.w3.org/Graphics/SVG/1.1/DTD/svg11.dtd" >
<svg xmlns="http://www.w3.org/2000/svg">
<metadata>
This is a custom SVG font generated by IcoMoon.
<iconset grid="14"></iconset>
</metadata>
<defs>
<font id="Portfolio-Icons" horiz-adv-x="448" >
<font-face units-per-em="448" ascent="384" descent="-64" />
<missing-glyph horiz-adv-x="448" />
<glyph unicode="&#xe000;" d="M 239.716,141.924c 9.401-24.535, 16.313-49.78, 20.708-75.634

	c-11.212-4.329-23.341-6.799-36.059-6.799c-23.258,0-44.636,8.011-61.684,21.325C 182.645,112.126, 208.13,132.504, 239.716,141.924z

	 M 179.016,249.576c-25.81-13.119-45.173-37.023-52.192-65.771c 33.999,0.233, 63.416,3.96, 88.051,11.212

	C 204.476,213.707, 192.517,231.91, 179.016,249.576z M 285.631,239.497c-16.981,13.119-38.196,21.012-61.266,21.012

	c-8.519,0-16.752-1.181-24.655-3.189c 13.291-17.863, 25.068-36.262, 35.372-55.131C 256.56,211.285, 273.42,223.747, 285.631,239.497z

	 M 231.658,161.483c-2.161,4.869-4.423,9.706-6.787,14.516c-28.204-8.859-61.865-13.351-100.883-13.405

	c-0.023-0.869-0.132-1.718-0.132-2.594c0-24.403, 8.76-46.794, 23.279-64.222C 169.157,128.818, 197.397,150.773, 231.658,161.483z

	 M 260.687,146.386c 8.513-22.753, 15.022-46.078, 19.465-69.93c 22.82,15.291, 38.951,39.691, 43.383,67.938

	C 300.637,148.371, 279.7,149.069, 260.687,146.386z M 404.615,160c0-99.55-80.7-180.25-180.25-180.25s-180.25,80.7-180.25,180.25

	s 80.7,180.25, 180.25,180.25S 404.615,259.55, 404.615,160z M 346.034,160c0,67.197-54.473,121.669-121.669,121.669

	c-67.197,0-121.669-54.472-121.669-121.669c0-67.194, 54.472-121.669, 121.669-121.669C 291.56,38.331, 346.034,92.806, 346.034,160z

	 M 244.8,183.443c 2.735-5.633, 5.301-11.322, 7.775-17.035c 21.893,3.771, 45.905,3.542, 72.012-0.741

	c-1.264,22.474-9.854,42.997-23.536,59.158C 287.032,207.354, 268.213,193.579, 244.8,183.443z"  />
<glyph unicode="&#xe001;" d="M 124.739,33.695L 43.75,33.695 l0,30.625 l 80.989,0 L 124.739,33.695 z M 336.027,286.305l-165.13-164.833l-20.657-87.081l 88.882,18.981

	L 404.25,218.206L 336.027,286.305z M 223.852,81.428l-16.25-3.471l-12.542,12.525l 3.671,15.473l 137.297,137.051l 24.846-24.801

	L 223.852,81.428z"  />
<glyph unicode="&#xe002;" d="M 224.432,54.876c-71.397,0-138.3,48.955-180.682,111.080c 47.15,66.1, 116.726,99.167, 180.682,99.167

	c 64.219,0, 134.326-32.721, 179.818-98.794C 365.249,101.333, 298.387,54.876, 224.432,54.876z M 81.902,165.449

	c 34.809-42.996, 86.212-79.944, 142.531-79.944c 76.715,0, 126.373,57.488, 142.636,79.609c-34.625,40.738-85.546,69.381-142.636,69.381

	C 150.219,234.496, 99.642,185.65, 81.902,165.449z M 226.058,159.927l-51.092,33.013c-6.156-9.507-9.73-20.842-9.73-33.013

	c0-33.591, 27.231-60.822, 60.822-60.822c 33.592,0, 60.823,27.231, 60.823,60.822s-27.231,60.822-60.823,60.822

	c-11.284,0-21.851-3.073-30.907-8.428L 226.058,159.927z"  />
<glyph unicode="&#xe003;" d="M 367.055,142.662l0-145.436 L 263.134-2.774 l0,79.039 l-78.27,0 l0-79.039 L 80.944-2.774 L 80.944,142.662 L 43.75,142.662 L 224,322.775l 180.25-180.113L 367.055,142.661 

	z M 344.813,306.587l-41.927,0 l0-33.522 l 41.927-42.020L 344.813,306.587 z"  />
<glyph unicode="&#xe004;" d="M 400.663,255.862C 381.933,336.474, 263.99,356.944, 224,275.332

	C 184.010,356.944, 66.068,336.475, 47.337,255.862C 16.849,124.648, 189.775,64.987, 224-7.344

	C 258.225,64.987, 431.151,124.647, 400.663,255.862z"  />
<glyph unicode="&#xe005;" d="M 404.25,135.726l0,48.549 l-43.093,15.325c-2.975,10.318-7.083,20.153-12.179,29.368l 19.642,41.324

	l-34.33,34.33l-41.323-19.643c-9.214,5.096-19.050,9.205-29.369,12.179L 248.273,340.25l-48.549,0 l-15.326-43.094

	c-10.318-2.973-20.153-7.082-29.368-12.178l-41.324,19.643l-34.33-34.33l 19.644-41.324c-5.096-9.215-9.206-19.050-12.179-29.368

	L 43.75,184.275l0-48.549 l 43.093-15.325c 2.973-10.318, 7.083-20.153, 12.179-29.368l-19.644-41.324l 34.33-34.33l 41.324,19.643

	c 9.215-5.096, 19.050-9.205, 29.368-12.18L 199.725-20.25l 48.549,0 l 15.326,43.093c 10.318,2.973, 20.155,7.083, 29.369,12.179l 41.323-19.642

	l 34.33,34.33l-19.642,41.323c 5.096,9.214, 9.206,19.050, 12.179,29.369L 404.25,135.726z M 224,93.897

	c-36.508,0-66.105,29.595-66.105,66.103s 29.596,66.104, 66.105,66.104c 36.508,0, 66.103-29.596, 66.103-66.104

	S 260.508,93.897, 224,93.897z"  />
<glyph unicode="&#xe006;" d="M 224,305.25c 38.797,0, 75.273-15.109, 102.707-42.542C 354.141,235.273, 369.25,198.798, 369.25,160

	c0-38.797-15.109-75.273-42.542-102.707C 299.273,29.859, 262.797,14.75, 224,14.75s-75.273,15.11-102.707,42.542

	C 93.859,84.727, 78.75,121.203, 78.75,160c0,38.797, 15.109,75.273, 42.542,102.707C 148.727,290.141, 185.202,305.25, 224,305.25 M 224,340.25

	C 124.45,340.25, 43.75,259.55, 43.75,160s 80.7-180.25, 180.25-180.25s 180.25,80.7, 180.25,180.25S 323.55,340.25, 224,340.25L 224,340.25z M 342.344,150.786l 0.208,2.167

	c-12.982,1.259-25.894,1.371-38.436,0.414c 2.016,6.435, 3.078,13.702, 3.001,21.966c-0.165,17.557-6.019,31.23-15.22,42.579

	c 1.768,10.689, 0.436,21.377-2.898,32.070c-13.146-1.076-24.979-5.382-35.514-12.862c-19.689,3.994-39.376,4.248-59.065,0

	c-12.289,8.294-24.356,12.361-36.236,12.862c-3.522-11.774-4.065-23.379-1.087-34.79c-10.365-10.999-14.326-24.349-14.132-39.133

	c 0.111-8.463, 1.415-15.994, 3.821-22.652c-12.359,0.907-25.063,0.784-37.838-0.453l 0.209-2.167

	c 13.010,1.263, 25.946,1.368, 38.511,0.384c 0.461-1.118, 0.926-2.233, 1.455-3.298c-13.614,0.359-25.866-0.823-37.34-3.645l 0.518-2.111

	c 11.646,2.862, 24.12,4.014, 38.049,3.546c 9.211-16.365, 26.945-25.981, 52.768-29.034c-5.999-4.872-9.225-10.62-10.056-17.124

	c0,0-2.715,0-13.676,0c-18.368,0-23.376,23.42-42.4,21.109c 18.456-9.153, 14.77-38.409, 44.304-38.409c 9.925,0, 12.036,0, 12.408,0

	l0-26.817 c 0.131-4.333-1.755-7.232-4.802-9.24c 10.577-1.068, 18.526,4.212, 18.526,10.69c0,6.478,0,32.289,0,35.448

	s 3.307,3.403, 3.307,3.403l0-41.387 c 0.14-4.119-1.862-6.46-3.986-8.697c 9.318-0.372, 18.083,1.489, 18.48,9.42c0,0,0,37.619,0,39.61

	s 3.263,2.040, 3.263,0s0-37.752,0-37.752c 0.096-6.69, 5.875-12.114, 18.117-11.279c-3.275,2.636-4.28,5.302-4.28,9.158

	c0,3.855,0,40.926,0,40.926s 3.374,0.172, 3.374-3.403c0-3.575,0-28.537,0-34.52c0-7.682, 9.223-10.852, 19.748-10.554

	c-3.447,2.583-5.782,5.665-5.797,9.784l0,41.513 c-0.356,6.102-2.837,11.854-7.702,17.214c 23.606,3.624, 40.619,13.046, 49.091,29.935

	c 13.975,0.48, 26.487-0.67, 38.163-3.541l 0.518,2.111c-11.563,2.842-23.916,4.024-37.657,3.637c 0.475,1.073, 0.947,2.149, 1.354,3.28

	C 316.109,152.164, 329.189,152.065, 342.344,150.786z M 145.236,117.119c-0.58,0-1.051,0.334-1.051,0.745

	c0,0.412, 0.471,0.746, 1.051,0.746c 0.581,0, 1.051-0.334, 1.051-0.746C 146.288,117.453, 145.817,117.119, 145.236,117.119z

	 M 148.544,114.862c-0.645,0-1.169,0.371-1.169,0.828s 0.524,0.829, 1.169,0.829c 0.643,0, 1.167-0.372, 1.167-0.829

	S 149.188,114.862, 148.544,114.862z M 151.899,111.931c-0.757,0-1.369,0.434-1.369,0.97s 0.612,0.971, 1.369,0.971

	c 0.756,0, 1.369-0.435, 1.369-0.971S 152.655,111.931, 151.899,111.931z M 155.159,108.412c-0.885,0-1.602,0.509-1.602,1.137

	c0,0.626, 0.717,1.135, 1.602,1.135c 0.884,0, 1.6-0.509, 1.6-1.135C 156.76,108.921, 156.043,108.412, 155.159,108.412z

	 M 158.75,104.434c-0.983,0-1.78,0.565-1.78,1.263c0,0.697, 0.797,1.263, 1.78,1.263s 1.78-0.565, 1.78-1.263

	C 160.53,104.999, 159.733,104.434, 158.75,104.434z M 162.908,100.398c-1.092,0-1.978,0.626-1.978,1.402

	c0,0.774, 0.886,1.404, 1.978,1.404c 1.091,0, 1.977-0.629, 1.977-1.404C 164.885,101.024, 164,100.398, 162.908,100.398z M 168.531,96.555

	c-1.214,0-2.198,0.698-2.198,1.559s 0.984,1.56, 2.198,1.56c 1.213,0, 2.196-0.699, 2.196-1.56S 169.744,96.555, 168.531,96.555z

	 M 175.5,94.5c-1.213,0-2.197,0.699-2.197,1.558c0,0.861, 0.984,1.56, 2.197,1.56c 1.214,0, 2.197-0.699, 2.197-1.56

	C 177.697,95.198, 176.714,94.5, 175.5,94.5z M 182.848,94.263c-1.214,0-2.197,0.698-2.197,1.558

	c0,0.861, 0.983,1.56, 2.197,1.56c 1.213,0, 2.197-0.699, 2.197-1.56C 185.044,94.961, 184.060,94.263, 182.848,94.263z

	 M 190.1,94.122c-1.213,0-2.197,0.697-2.197,1.558c0,0.86, 0.984,1.56, 2.197,1.56c 1.214,0, 2.198-0.7, 2.198-1.56

	C 192.298,94.82, 191.314,94.122, 190.1,94.122z"  />
<glyph unicode="&#xe007;" d="M 224.365,340.25c-99.55,0-180.25-80.7-180.25-180.25s 80.7-180.25, 180.25-180.25s 180.25,80.7, 180.25,180.25

	S 323.914,340.25, 224.365,340.25z M 176.274,72.857l-39.575,0 L 136.699,200.715 l 39.575,0 L 176.274,72.857 z M 156.298,217.459c-12.925,0-23.403,10.563-23.403,23.593

	s 10.478,23.593, 23.403,23.593c 12.924,0, 23.402-10.563, 23.402-23.593S 169.221,217.459, 156.298,217.459z M 324.584,72.857l-39.384,0 

	c0,0,0,48.708,0,67.115s-6.992,28.683-21.548,28.683c-15.84,0-24.117-10.702-24.117-28.683c0-19.691,0-67.115,0-67.115l-37.958,0 

	L 201.578,200.715 l 37.958,0 l0-17.219 c0,0, 11.416,21.12, 38.528,21.12c 27.113,0, 46.519-16.553, 46.519-50.801

	C 324.584,119.567, 324.584,72.857, 324.584,72.857z"  />
<glyph unicode="&#xe008;" d="M 224,340.25C 124.45,340.25, 43.75,259.55, 43.75,160s 80.7-180.25, 180.25-180.25s 180.25,80.7, 180.25,180.25S 323.55,340.25, 224,340.25z

	 M 314.649,191.057c 2.643-58.799-41.209-124.358-118.827-124.358c-23.608,0-45.584,6.922-64.083,18.783

	c 22.179-2.614, 44.315,3.538, 61.892,17.313c-18.294,0.338-33.735,12.423-39.053,29.033c 6.55-1.253, 12.995-0.886, 18.878,0.714

	c-20.104,4.040-33.984,22.152-33.531,41.521c 5.635-3.133, 12.084-5.013, 18.937-5.23c-18.618,12.443-23.89,37.028-12.937,55.815

	c 20.618-25.293, 51.424-41.937, 86.168-43.68c-6.098,26.15, 13.739,51.334, 40.724,51.334c 12.024,0, 22.89-5.077, 30.515-13.202

	c 9.524,1.875, 18.47,5.354, 26.548,10.145c-3.121-9.762-9.751-17.956-18.382-23.129c 8.457,1.009, 16.515,3.257, 24.011,6.583

	C 329.906,204.314, 322.818,196.95, 314.649,191.057z"  />
<glyph unicode="&#xe009;" d="M 356.517,68.585c-51.657,11.915-99.74,22.348-76.453,66.252
	c 70.884,133.638, 18.789,205.105-56.063,205.105c-76.327,0-127.14-74.21-56.063-205.105c 23.985-44.172-25.907-54.594-76.453-66.252
	c-51.636-11.908-47.664-39.133-47.664-88.529l 360.358,0 C 404.179,29.453, 408.151,56.677, 356.517,68.585z"  />
<glyph unicode="&#xe00a;" d="M 162.904,159.996A36.153,36.153 540 1 1 235.211,159.996A36.153,36.153 540 1 1 162.904,159.996zM 199.058,159.996M 101.864,159.996C 101.864,283.707, 145.379,384, 199.058,384c 53.693,0, 97.216-100.293, 97.216-224.004c0-123.711-43.523-223.996-97.216-223.996
	C 145.379-64, 101.864,36.285, 101.864,159.996z M 199.058-45.036c 49.141,0, 88.973,91.791, 88.973,205.027c0,113.241-39.832,205.027-88.973,205.027
	c-49.132,0-88.964-91.787-88.964-205.027C 110.094,46.759, 149.93-45.036, 199.058-45.036zM 247.671,75.816C 140.527,13.952, 31.914,1.507, 5.074,47.996C-21.766,94.489, 43.324,182.324, 150.463,244.179
	c 107.139,61.851, 215.752,74.315, 242.592,27.816C 419.899,225.507, 354.805,137.672, 247.671,75.816z M 376.631,262.512
	c-24.568,42.556-123.993,31.149-222.047-25.464C 56.518,180.437-3.066,100.035, 21.502,57.48C 46.071,14.928, 145.486,26.331, 243.549,82.944
	C 341.611,139.557, 401.2,219.956, 376.631,262.512zM 247.671,244.179c 107.131-61.855, 172.225-149.691, 145.38-196.184c-26.84-46.489-135.453-34.044-242.592,27.821
	C 43.324,137.672-21.766,225.516, 5.074,271.996C 31.914,318.493, 140.527,306.030, 247.671,244.179z M 21.502,262.512
	c-24.568-42.556, 35.016-122.945, 133.083-179.567c 98.053-56.613, 197.479-68.016, 222.047-25.464c 24.568,42.556-35.016,122.953-133.083,179.567
	C 145.486,293.665, 46.071,305.063, 21.502,262.512z" horiz-adv-x="398.125"  />
<glyph unicode="&#xe00b;" d="M 281.963,120.24c 8.803,7.253, 17.557,15.169, 26.114,23.727c 61.659,61.659, 90.859,133.195, 67.599,163.264  C 410.569,342.619, 436.092,370.515, 434.654,371.949c-1.429,1.433-29.326-24.084-64.719-58.979c-30.061,23.287-101.615-5.918-163.279-67.585  c-8.561-8.561-16.477-17.315-23.735-26.119c-26.916,16.325-79.243-2.549-122.398-45.713C 13.709,126.732-4.574,69.109, 19.689,44.846  C 92.019,117.18, 102.659,127.767, 131.511,102.020c 0.135-1.151, 0.291-2.293, 0.497-3.4c-5.972,5.511-11.141,9.587-16.151,12.002l-24.743-8.871  l 10.94-10.936l-17.602-6.312l 10.739-10.735l-16.481-5.905l 51.816-51.82l 5.913,16.481l 10.735-10.729l 6.312,17.571l 10.94-10.936l 8.875,24.739  c-2.424,5.008-6.5,10.179-12.011,16.16c 1.12-0.206, 2.267-0.367, 3.432-0.501c 25.747-28.86, 15.165-39.5-57.169-111.829  c 24.268-24.264, 81.889-5.981, 128.706,40.831C 279.413,40.984, 298.296,93.315, 281.963,120.24z M 320.159,254.376  c 9.915-9.909, 9.915-25.988,0-35.899c-9.915-9.915-25.993-9.915-35.903-0.004c-9.915,9.915-9.915,25.988,0,35.907  C 294.171,264.289, 310.244,264.289, 320.159,254.376z M 191.332,125.549c-9.915,9.915-9.915,25.993,0,35.907c 9.909,9.915, 25.988,9.915, 35.903,0  c 9.915-9.915, 9.915-25.993,0-35.903C 217.325,115.635, 201.246,115.635, 191.332,125.549z M 237.793,172.011c-3.096,3.096-5.228,6.801-6.393,10.725  c-2.553,8.637-0.425,18.364, 6.393,25.183l0,0l0,0c 6.815,6.815, 16.54,8.947, 25.177,6.388c 3.929-1.16, 7.625-3.293, 10.725-6.388  c 9.919-9.915, 9.919-25.988, 0.004-35.903C 263.787,162.096, 247.708,162.096, 237.793,172.011z"  />
<glyph unicode="&#xe00c;" d="M 28,160c 15.479,0, 28-12.521, 28-28l0-112 c0-15.479-12.521-28-28-28L0-8 L0-64 l 224,0 L 224-8 l-27.892,0   c-15.42,0-28,12.521-28,28L 168,216L0,216 L0,160 L 28,160 zM 168,328C 168,297.048, 142.952,272, 112,272s-56,25.048-56,56S 81.048,384, 112,384S 168,358.952, 168,328z" horiz-adv-x="224"  />
<glyph unicode="&#xe00d;" d="M0,192.156L 257.25,127.844L 514.5,192.156L 514.5,127.844L 257.25,63.531L0,127.844 zM0,63.531L 257.25-0.781L 514.5,63.531L 514.5-0.781L 257.25-65.094L0-0.781 zM0,320.781L 257.25,385.094L 514.5,320.781L 514.5,256.469L 257.25,192.156L0,256.469 z" horiz-adv-x="514.5"  />
<glyph unicode="&#xe00e;" d="M 228.94,159.284L0-23.89L0,342.48    zM 458.638,159.284L 687.564-23.89L 687.564,342.48    zM 687.564,385.132L 345.194,105.77L0,385.132    zM 688.625-65.125L 433.235,136.703L 345.194,66.244l-88.075,70.453L0-65.125L 688.625-65.125 z" horiz-adv-x="688.625"  />
<glyph unicode="&#xe00f;" d="M 62.72,321.28L 385.28,321.28L 385.28,240.64L 62.72,240.64zM 62.72,200.32L 385.28,200.32L 385.28,119.68L 62.72,119.68zM 62.72,79.36L 385.28,79.36L 385.28-1.28L 62.72-1.28z"  />
<glyph unicode="&#xe010;" d="M 222.011-38.065L 449.805,71.292L 367.463,99.3L 222.939,29.852L 84.864,87.491L 1.805,53.837  zM 222.011,163.436L 449.805,272.784L 234.403,354.459L 1.805,255.294  zM 222.011,60.589L 449.805,169.955L 362.387,199.68L 222.939,132.685L 89.936,188.179L 1.805,152.492  z"  />
<glyph unicode="&#xe011;" d="M 314.98,63.389l-9.251,0.547l 5.345,15.581l-6.401,0.466l 8.512,17.047l-7.939,1.353l 12.024,14.556l-7.948,2.929l 13.933,12.768   l-7.003,4.52l 17.692,11.379l-7.092,4.417l 16.181,8.319l-9.009,7.517l 18.539,6.657l-5.112,4.552l 11.523,4.987l-4.977,4.207l 6.325,2.361   c 1.774-1.68, 3.759-3.633, 5.864-5.784l 12.141,0.22l-7.943-4.453c 2.187-2.405, 4.503-5.067, 6.899-8.001   c 0.493-0.609, 0.995-1.236, 1.488-1.868l 10.703,1.093l-7.54-5.448c 3.189-4.641, 6.111-9.645, 8.655-14.368l 8.149,3.329l-6.088-7.235   c 4.529-8.861, 7.375-15.845, 7.375-15.845s 17.333,19.649, 7.557,40.485c-9.803,20.836-30.334,28.099-30.334,28.099l 12.436,2.818l 10.34,4.995   l-5.116-6.111c 0.752-0.053, 4.207-0.64, 5.013-0.717c 4.381-0.412, 5.954-1.295, 12.217-3.225l 8.172,4.588L 418.163,193.6   c 9.896-3.311, 18.511-6.756, 18.511-6.756s-6.809,23.968-27.068,29.299c-16.424,4.309-37.628-0.816-37.628-0.816s 0.695,13.279-16.025,29.483   c-12.28,11.885-37.583,9.959-37.583,9.959s 6.111-5.497, 12.495-11.961l 12.593-2.379l-7.563-2.804c 1.187-1.308, 3.119-3.58, 4.127-4.812   c 2.549-3.113, 5.205-7.249, 6.743-10.304l 6.908,0.108l-5.139-4.771c 1.371-3.525, 1.94-5.936, 1.94-5.936s-22.973,16.903-50.544,15.689   c-17.419-0.766-44.481-17.436-50.552-21.316c 2.37,1.021, 9.292,2.777, 29.214,3.924l 3.893,6.765l 2.37-6.505   c 14.345,0.273, 25.329-2.052, 32.763-4.448l 1.397,6.815l 2.217-8.096c 5.072-1.931, 7.679-3.62, 7.679-3.62s-16.392-2.339-28.577-15.586   c-8.159-8.875-13.001-21.956-13.001-21.956s 13.144,11.787, 28.9,16.191l 1.621,6.093l 4.279-2.836c 5.143,2.701, 12.62,6.061, 16.827,7.347   l 1.743,5.268l 2.137-3.821c 4.924,1.156, 9.049,1.393, 10.649,1.429l-1.756-6.133l-6.030,5.107l-3.275-11.76l-7.047,6.272l-4.18-19.596   l-8.691,7.253l-1.541-21.759l-10.68,6.644l 0.972-22.907l-12.123,7.827l 2.115-25.335l-11.28,4.167l 5.564-22.996l-8.821,1.505l 9.005-20.921   l-9.395,0.681l 9.448-16.787L 287.079,65.024l 4.609-9.556c-19.363,1.828-36.041,4.091-58.020,1.864l 12.495,22.18l-13.964-0.999l 13.381,31.119   l-13.127-2.24l 8.271,34.223l-16.755-6.205l 3.127,37.695l-18.050-11.648l 1.447,34.080l-15.868-9.888l-2.285,32.386l-12.947-10.797l-6.227,29.156   l-10.469-9.328l-4.852,17.489l-8.996-7.598l-2.912,10.277c 5.694,0.977, 14.448,2.379, 24.353,3.669l 13.467,15.949l-2.249-14.461   c 6.16,0.605, 12.876,1.133, 20.066,1.519c 1.501,0.085, 3.024,0.144, 4.547,0.193l 10.511,14.892l-0.273-14.843   c 10.703-0.175, 21.701-1.025, 31.785-2.128l 4.193,13.646l 4.095-14.623c 18.677-2.348, 32.575-5.175, 32.575-5.175s-10.251,40.751-53.2,47.439   c-42.932,6.689-77.374-13.203-77.374-13.203l 9.843,18.757l 4.167,18.055l 3.499-12.297c 0.919,0.919, 5.744,4.856, 6.796,5.828   c 5.609,5.291, 8.736,6.509, 18.812,12.844l 2.307,14.851l 7.504-8.844c 16.307,9.744, 31.356,17.709, 31.356,17.709s-44.316,13.467-75.471-7.844   c-25.285-17.293-41.575-49.563-41.575-49.563s-19.47,13.256-63.227,6.621C 30.325,291.353, 4.489,256.768, 4.489,256.768s 15.348,2.804, 32.471,5.067   l 17.973,14.139l-4.332-12.415c 3.324,0.304, 8.996,0.699, 12.024,0.856c 7.639,0.421, 16.979,0.027, 23.404-0.82l 7.696,9.055l 1.42-11.105   c 6.935-1.515, 11.272-3.015, 11.272-3.015S 54.481,244.452, 24.972,207.551C 6.353,184.273, 0.99,133.671,0,122.184   c 1.156,4.032, 6.335,14.632, 27.265,41.548l-5.905,11.329l 12.639-2.971c 15.877,18.852, 31.929,30.957, 44.033,38.344l-8.825,8.149l 14.864-4.655   c 8.727,4.78, 14.277,6.612, 14.277,6.612s-15.080-23.444-8.723-51.543c 4.26-18.852, 18.727-37.287, 18.727-37.287s-3.060,28, 8.153,52.545   l-7.437,7.764l 9.161,2.912c 1.739,9.157, 5.125,21.997, 7.943,28.654l-6.052,7.145l 8.256-0.784c 1.698,3.284, 3.472,6.177, 5.099,8.615   l 11.988-4.471l-7.409-6.259l 17.154-7.423l-7.612-6.779l 27.588-9.892l-13.395-11.177l 24.063-12.387l-10.551-6.572l 26.32-16.939l-10.403-6.711   l 20.724-18.995l-11.836-4.372l 17.889-21.656l-11.8-2.012l 12.66-25.365l-9.529-0.676l 7.289-21.221   c-94.568-11.177-147.303-54.876-167.879-76.173c 6.913-6.604, 16.231-10.699, 26.535-10.699c 11.5,0, 21.795,5.076, 28.843,13.077   c 7.047-8.001, 17.356-13.077, 28.851-13.077c 11.505,0, 21.795,5.076, 28.847,13.077c 7.052-8.001, 17.351-13.077, 28.843-13.077   c 11.5,0, 21.795,5.076, 28.847,13.077c 7.047-8.001, 17.351-13.077, 28.843-13.077c 11.509,0, 21.795,5.076, 28.851,13.077   c 7.043-8.001, 17.347-13.077, 28.851-13.077c 11.496,0, 21.791,5.076, 28.833,13.077c 7.052-8.001, 17.347-13.077, 28.856-13.077   c 11.491,0, 21.795,5.076, 28.843,13.077c 7.047-8.001, 17.351-13.077, 28.847-13.077c 10.335,0, 19.663,4.108, 26.567,10.735   c-21.504,19.672-70.654,58.379-137.872,73.083L 314.98,63.389z"  />
<glyph unicode="&#xe012;" d="M 213.271,38.121c-2.8-5.063-2.124-8.459, 2.777-8.459c 9.843,0, 48.416,21.975, 65.986,35.495c 8.377,0, 15.393-6.223, 13.315-13.521   C 267.963,22.32, 205.556-15.347, 148.041-15.347c-18.283,0-32.283,15.743-32.283,22.48c0,6.227, 2.791,12.988, 8.351,24.209l 72.993,140.291   c 2.111,4.484, 2.111,7.849-1.393,7.849c-11.908,0-51.193-23.655-62.42-32.055c-8.449,1.103-14.063,8.4-11.223,13.507   c 37.873,37.153, 103.824,64.776, 140.985,64.776c 15.456,0, 32.292-12.383, 32.292-24.765c0-5.631-4.937-16.329-9.184-24.828L 213.271,38.121z    M 293.22,349.065c 23.843,0, 39.289-11.859, 39.289-33.224c0-24.828-21.038-45.643-53.316-45.643c-25.931,0-41.359,14.080-41.359,32.085   C 237.829,327.091, 260.928,349.065, 293.22,349.065z"  />
<glyph unicode="&#xe013;" d="M 300.528,168.608c-25.080,0-28.568-25.032-28.568-25.032l 53.328,0 C 325.288,143.576, 325.624,168.608, 300.528,168.608zM 179.544,143.576l-47.272,0 l0-43.4 l 41.848,0 c 0.712,0, 1.776-0.016, 3.024,0c 6.736,0.16, 19.496,2.12, 19.496,21.096
		C 196.648,143.808, 179.544,143.576, 179.544,143.576zM 224.008,343.688c-107.472,0-194.592-87.104-194.592-194.576c0-107.472, 87.12-194.592, 194.592-194.592
		c 107.456,0, 194.576,87.12, 194.576,194.592C 418.584,256.576, 331.456,343.688, 224.008,343.688z M 264.968,224.128l 66.984,0 l0-19.992 l-66.984,0 L 264.968,224.128 z
		 M 231.112,119.256c0-49.552-51.56-47.92-51.56-47.92l-47.272,0 l-1.384,0 l-35.84,0 L 95.056,233.696 l 35.84,0 l 1.384,0 l 47.272,0 c 25.664,0, 45.928-14.176, 45.928-43.224
		c0-29.048-24.776-30.896-24.776-30.896C 233.36,159.568, 231.112,119.256, 231.112,119.256z M 356.424,121.904L 272.288,121.904 
		c0-30.152, 28.568-28.256, 28.568-28.256c 26.976,0, 26.040,17.472, 26.040,17.472l 28.584,0 c0-46.36-55.576-43.184-55.576-43.184
		c-66.664,0-62.376,62.072-62.376,62.072s-0.064,62.376, 62.376,62.376C 365.616,192.376, 356.424,121.904, 356.424,121.904zM 191.032,187.944c0,16.888-11.48,16.888-11.48,16.888l-6.088,0 l-41.184,0 l0-36.224 l 44.336,0 C 184.264,168.608, 191.032,171.064, 191.032,187.944z"  />
<glyph unicode="&#xe014;" d="M 404.25,69l0-11.375 c0-9.665-7.835-17.5-17.5-17.5L 61.25,40.125 c-9.665,0-17.5,7.835-17.5,17.5l0,11.375 l 146.202,0 
	c 1.2-5.38, 5.994-8.531, 11.736-8.531l 44.625,0 c 5.742,0, 10.537,3.151, 11.736,8.531L 404.25,69 z M 349.855,256.25L 98.145,256.25 l0-150.5 l 251.709,0 L 349.855,256.25  M 373.481,82.125
	L 74.522,82.125 L 74.522,262.375 c0,9.665, 7.835,17.5, 17.5,17.5l 263.959,0 c 9.665,0, 17.5-7.835, 17.5-17.5L 373.481,82.125 z"  />
<glyph unicode="&#xe015;" d="M 168,104l 56,28L 420,328l-28,28L 196,160L 168,104z M 126.569,4.645c-13.839,29.193-28.729,44.083-57.923,57.922L 112,181.913
	L 168,216L 336,384l-84,0 L 84,216L0-64l 280,84l 168,168l0,84 L 280,104l-34.087-56"  />
<glyph unicode="&#xe016;" d="M 448,20L 448,356 L0,356 l0-336 l 196,0 l0-28 l-84,0 l0-28 l 224,0 l0,28 l-84,0 l0,28 L 448,20 z M 56,300l 336,0 l0-224 L 56,76 L 56,300 z"  />
<glyph unicode="&#xe017;" d="M 371-64L 77-64 c-11.598,0-21,9.402-21,21c0,30.127, 12.717,66.589, 34.019,97.537c 17.803,25.864, 39.674,45.334, 63.297,56.704
		c-10.412,9.469-19.379,21.011-26.472,34.178c-11.375,21.115-17.389,45.521-17.389,70.581c0,34.828, 11.464,67.735, 32.281,92.658
		C 163.464,334.673, 192.679,349, 224,349s 60.536-14.327, 82.265-40.342c 20.816-24.924, 32.281-57.83, 32.281-92.658
		c0-25.060-6.013-49.466-17.388-70.581c-7.094-13.167-16.061-24.709-26.473-34.178c 23.622-11.371, 45.494-30.84, 63.297-56.704
		C 379.283,23.589, 392-12.873, 392-43C 392-54.598, 382.598-64, 371-64z M 100.657-22l 246.685,0 
		c-4.036,17.211-12.477,36.043-23.958,52.723c-18.136,26.349-40.764,43.585-63.717,48.53c-9.671,2.084-16.576,10.636-16.576,20.529
		l0,15.003 c0,7.551, 4.054,14.521, 10.618,18.253c 26.022,14.802, 42.837,47.366, 42.837,82.961c0,50.178-32.543,91-72.545,91
		c-40.002,0-72.545-40.822-72.545-91c0-35.595, 16.815-68.159, 42.837-82.961c 6.563-3.734, 10.617-10.702, 10.617-18.253l0-15.003 
		c0-9.894-6.905-18.445-16.576-20.529c-22.952-4.946-45.581-22.181-63.717-48.53C 113.134,14.043, 104.695-4.789, 100.657-22z"  />
<glyph unicode="&#xe018;" d="M 420,300L 420,328L 224,272L 28,328L 28,300L 168,244L 168,132L 112-64L 140-64L 224,132L 308-64L 336-64L 280,132L 280,244 	zM 182,342A42,42 12780 1 1 266,342A42,42 12780 1 1 182,342z"  />
<glyph unicode="&#xe019;" d="M 448,227.307 C 448,189.523 431.717,155.544 405.786,132 L 406,132 L 266-8 C 252-22 238-36 224-36 C 210-36 196-22 182-8 L 42,132 L 42.214,132 C 16.283,155.544 0,189.523 0,227.307 C 0,298.382 57.618,356 128.693,356 C 166.477,356 200.456,339.717 224,313.786 C 247.544,339.717 281.523,356 319.307,356 C 390.381,356 448,298.382 448,227.307 Z"  />
<glyph unicode="&#xe01a;" d="M 448,227.307C 448,298.382, 390.381,356, 319.307,356C 281.523,356, 247.544,339.717, 224,313.786C 200.456,339.717, 166.477,356, 128.693,356
	C 57.618,356,0,298.382,0,227.307C0,189.523, 16.283,155.544, 42.214,132L 42,132 l 140-140c 14-14, 28-28, 42-28s 28,14, 42,28l 140,140l-0.214,0 
	C 431.717,155.544, 448,189.523, 448,227.307z M 368.142,173.461L 226.402,31.598c-0.734-0.734-1.545-1.545-2.402-2.397
	c-0.857,0.853-1.669,1.663-2.402,2.397L 79.858,173.46C 64.473,187.429, 56,206.552, 56,227.307C 56,267.39, 88.61,300, 128.693,300
	c 20.755,0, 39.878-8.473, 53.846-23.858L 224,230.476l 41.461,45.665C 279.43,291.527, 298.552,300, 319.307,300
	C 359.39,300, 392,267.39, 392,227.307C 392,206.552, 383.526,187.429, 368.142,173.461z"  />
<glyph unicode="&#xe01b;" d="M 443.915,24.086c-0.002,0.002-0.004,0.004-0.005,0.004L 308.003,160l 135.907,135.909c 0.002,0.002, 0.004,0.003, 0.005,0.004
		c 1.463,1.464, 2.521,3.174, 3.199,4.995c 1.858,4.977, 0.798,10.798-3.204,14.801L 379.708,379.91c-4.002,4.001-9.822,5.060-14.8,3.203
		c-1.82-0.678-3.531-1.736-4.995-3.198c0-0.002-0.002-0.003-0.004-0.004L 224.001,244L 88.092,379.909
		c-0.002,0.002-0.003,0.003-0.004,0.004c-1.464,1.462-3.174,2.52-4.994,3.198c-4.979,1.859-10.798,0.799-14.801-3.203L 4.091,315.707
		c-4.002-4.002-5.061-9.823-3.203-14.8c 0.679-1.82, 1.737-3.531, 3.199-4.995c 0.002-0.001, 0.003-0.003, 0.004-0.004L 140.001,160
		L 4.091,24.090c-0.001-0.002-0.003-0.003-0.004-0.004c-1.462-1.464-2.52-3.174-3.2-4.994c-1.859-4.977-0.799-10.798, 3.203-14.801
		l 64.202-64.201c 4.003-4.002, 9.823-5.061, 14.801-3.203c 1.82,0.679, 3.531,1.737, 4.995,3.199c 0.001,0.002, 0.003,0.003, 0.004,0.004
		l 135.909,135.909l 135.909-135.909c 0.002-0.001, 0.004-0.003, 0.005-0.004c 1.465-1.463, 3.174-2.521, 4.994-3.2
		c 4.978-1.858, 10.799-0.799, 14.8,3.203l 64.201,64.202c 4.002,4.002, 5.062,9.824, 3.204,14.801
		C 446.435,20.913, 445.378,22.622, 443.915,24.086z"  />
<glyph unicode="&#xe01c;" d="M 448,272L 336,384l0-84 c-57.213,0-100.954-13.653-133.722-41.741c-2.297-1.969-4.499-3.981-6.633-6.026
		c 12.040-16.697, 21.313-33.913, 29.65-50.352C 246.436,227.432, 276.944,244, 336,244l0-84 l0,0 l0-84 c-94.695,0-115.993,42.595-142.956,96.522
		c-15.009,30.018-30.529,61.058-59.322,85.737C 100.954,286.347, 57.213,300,0,300l0-56 c 94.695,0, 115.993-42.595, 142.956-96.522
		c 15.009-30.018, 30.529-61.058, 59.322-85.737C 235.046,33.654, 278.788,20, 336,20l0-84 l 112,112L 336,160L 448,272zM0,76l0-56 c 57.213,0, 100.953,13.653, 133.722,41.741c 2.297,1.968, 4.499,3.981, 6.633,6.027
		c-12.040,16.696-21.314,33.913-29.65,50.352C 89.565,92.569, 59.057,76,0,76z"  />
<glyph unicode="&#xe01d;" d="M 140,104L 140,188L 224,188L 112,300L0,188L 84,188L 84,48L 252,48L 196,104 	zM 364,132L 364,272L 196,272L 252,216L 308,216L 308,132L 224,132L 336,20L 448,132 	z"  />
<glyph unicode="&#xe01e;" d="M 190.134-36.098c 99.428,0, 187.194,55.104, 187.194,146.93c0,33.502-15.666,54.026-22.232,64.834c-5.474,6.482-5.474,11.886, 7.658,12.964
	c 51.338,7.56, 85.204,35.658, 85.204,89.67c0,29.176-24.038,64.26-67.732,64.26c-20.748,0-46.102-19.964-46.102-41.566
	c0-11.9, 12.236-26.096, 29.708-26.096c 19.67,0, 30.814,20.692, 27.538,29.344c-1.078,5.404-4.578,11.886, 3.052,11.886
	c 14.224,0, 30.604-18.368, 30.604-35.658c0-30.254-28.406-51.044-73.206-51.044c-24.038,0-44.786,14.826-67.732,14.826
	c-57.904,0-91.77-45.892-91.77-85.876c0-45.374, 34.958-66.976, 61.18-66.976c 29.484,0, 38.234,17.276, 38.234,31.332
	c0,16.198-9.842,27.006-30.604,27.006c-16.38,0-24.038-17.276-22.946-25.928c 1.092-4.326-2.184-7.56-5.474-7.56
	c-4.368,0-17.472,14.042-17.472,32.396c0,12.978, 8.75,55.622, 54.628,55.622c 49.154,0, 83.398-44.8, 83.398-81.536
	c0-51.856-58.282-106.974-157.696-106.974c-99.428,0-156.226,45.374-156.226,111.286c0,30.254, 13.118,58.338, 29.484,70.224
	c 6.566,4.326, 9.842,3.234, 13.118-2.156c 7.658-5.404, 25.13-19.964, 36.050-19.964c 14.21,0, 21.854,17.794, 21.854,32.942
	c0,12.964-15.288,21.868-28.392,21.868s-21.854-7.826-27.314-9.982c-7.644,11.886-12.012,27.006-12.012,38.892c0,34.566, 25.13,56.266, 49.168,56.266
	c 20.748,0, 38.234-16.282, 34.958-36.82c-1.092-5.404-1.092-9.716, 1.092-9.716c 8.736,0, 28.392,12.964, 28.392,36.736
	c0,33.488-25.116,50.778-57.904,50.778c-53.522,0-86.296-37.814-86.296-77.798c0-23.758, 8.736-45.374, 22.946-63.742
	c-21.854-9.716-64.456-46.452-64.456-111.286C 0.042,48.182, 38.276-36.098, 190.134-36.098z"  />
<glyph unicode="&#xe01f;" d="M0,114.416l 140.588-90.398l0,65.254 L 56.882,140.96l 83.706,51.688L 140.588,258.35 L0,167.49L0,114.416 z M 170.324-8l 48.384,0 l 70.896,336l-48.706,0 
			L 170.324-8z M 307.426,258.35l0-65.702 l 83.678-51.688l-83.678-51.674l0-65.254 L 448,114.416l0,53.074 L 307.426,258.35z"  />
<glyph unicode="&#xf00a;" d="M 128,72l0-48 q0-10 -7-17t-17-7l-80,0 q-10,0 -17,7t-7,17l0,48 q0,10 7,17t 17,7l 80,0 q 10,0 17-7t 7-17zM 128,200l0-48 q0-10 -7-17t-17-7l-80,0 q-10,0 -17,7t-7,17l0,48 q0,10 7,17t 17,7l 80,0 q 10,0 17-7t 7-17zM 288,72l0-48 q0-10 -7-17t-17-7l-80,0  q-10,0 -17,7t-7,17l0,48 q0,10 7,17t 17,7l 80,0 q 10,0 17-7t 7-17zM 128,328l0-48 q0-10 -7-17t-17-7l-80,0 q-10,0 -17,7t-7,17l0,48 q0,10 7,17t 17,7l 80,0 q 10,0 17-7t 7-17zM 288,200l0-48 q0-10 -7-17t-17-7l-80,0 q-10,0 -17,7t-7,17l0,48 q0,10 7,17t 17,7 l 80,0 q 10,0 17-7t 7-17zM 448,72l0-48 q0-10 -7-17t-17-7l-80,0 q-10,0 -17,7t-7,17l0,48 q0,10 7,17t 17,7l 80,0 q 10,0 17-7t 7-17zM 288,328l0-48 q0-10 -7-17t-17-7l-80,0 q-10,0 -17,7t-7,17l0,48 q0,10 7,17t 17,7l 80,0 q 10,0 17-7t 7-17zM 448,200l0-48  q0-10 -7-17t-17-7l-80,0 q-10,0 -17,7t-7,17l0,48 q0,10 7,17t 17,7l 80,0 q 10,0 17-7t 7-17zM 448,328l0-48 q0-10 -7-17t-17-7l-80,0 q-10,0 -17,7t-7,17l0,48 q0,10 7,17t 17,7l 80,0 q 10,0 17-7t 7-17z"  />
<glyph unicode="&#xf00b;" d="M 128,72l0-48 q0-10 -7-17t-17-7l-80,0 q-10,0 -17,7t-7,17l0,48 q0,10 7,17t 17,7l 80,0 q 10,0 17-7t 7-17zM 128,200l0-48 q0-10 -7-17t-17-7l-80,0 q-10,0 -17,7t-7,17l0,48 q0,10 7,17t 17,7l 80,0 q 10,0 17-7t 7-17zM 448,72l0-48 q0-10 -7-17t-17-7l-240,0  q-10,0 -17,7t-7,17l0,48 q0,10 7,17t 17,7l 240,0 q 10,0 17-7t 7-17zM 128,328l0-48 q0-10 -7-17t-17-7l-80,0 q-10,0 -17,7t-7,17l0,48 q0,10 7,17t 17,7l 80,0 q 10,0 17-7t 7-17zM 448,200l0-48 q0-10 -7-17t-17-7l-240,0 q-10,0 -17,7t-7,17l0,48 q0,10 7,17t 17,7 l 240,0 q 10,0 17-7t 7-17zM 448,328l0-48 q0-10 -7-17t-17-7l-240,0 q-10,0 -17,7t-7,17l0,48 q0,10 7,17t 17,7l 240,0 q 10,0 17-7t 7-17z"  />
<glyph unicode="&#xf009;" d="M 192,128l0-96 q0-13 -9.5-22.5t-22.5-9.5l-128,0 q-13,0 -22.5,9.5t-9.5,22.5l0,96 q0,13 9.5,22.5t 22.5,9.5l 128,0 q 13,0 22.5-9.5t 9.5-22.5zM 192,320l0-96 q0-13 -9.5-22.5t-22.5-9.5l-128,0 q-13,0 -22.5,9.5t-9.5,22.5l0,96 q0,13 9.5,22.5t 22.5,9.5l 128,0 q 13,0 22.5-9.5t 9.5-22.5zM 416,128l0-96 q0-13 -9.5-22.5t-22.5-9.5 l-128,0 q-13,0 -22.5,9.5t-9.5,22.5l0,96 q0,13 9.5,22.5t 22.5,9.5l 128,0 q 13,0 22.5-9.5t 9.5-22.5zM 416,320l0-96 q0-13 -9.5-22.5t-22.5-9.5l-128,0 q-13,0 -22.5,9.5t-9.5,22.5l0,96 q0,13 9.5,22.5t 22.5,9.5l 128,0 q 13,0 22.5-9.5t 9.5-22.5z" horiz-adv-x="416"  />
<glyph unicode="&#xf057;" d="M 287.25,103.5q0,6.5 -4.75,11.25l-45.25,45.25l 45.25,45.25q 4.75,4.75 4.75,11.25q0,6.75 -4.75,11.5l-22.5,22.5q-4.75,4.75 -11.5,4.75q-6.5,0 -11.25-4.75l-45.25-45.25l-45.25,45.25q-4.75,4.75 -11.25,4.75q-6.75,0 -11.5-4.75l-22.5-22.5q-4.75-4.75 -4.75-11.5q0-6.5 4.75-11.25l 45.25-45.25l-45.25-45.25q-4.75-4.75 -4.75-11.25q0-6.75 4.75-11.5l 22.5-22.5q 4.75-4.75 11.5-4.75 q 6.5,0 11.25,4.75l 45.25,45.25l 45.25-45.25q 4.75-4.75 11.25-4.75q 6.75,0 11.5,4.75l 22.5,22.5q 4.75,4.75 4.75,11.5zM 384,160q0-52.25 -25.75-96.375t-69.875-69.875t-96.375-25.75t-96.375,25.75t-69.875,69.875t-25.75,96.375t 25.75,96.375t 69.875,69.875t 96.375,25.75t 96.375-25.75t 69.875-69.875t 25.75-96.375z" horiz-adv-x="384"  />
<glyph unicode="&#xf056;" d="M 304,144l0,32 q0,6.5 -4.75,11.25t-11.25,4.75l-192,0 q-6.5,0 -11.25-4.75t-4.75-11.25l0-32 q0-6.5 4.75-11.25t 11.25-4.75l 192,0 q 6.5,0 11.25,4.75t 4.75,11.25zM 384,160q0-52.25 -25.75-96.375t-69.875-69.875t-96.375-25.75t-96.375,25.75t-69.875,69.875t-25.75,96.375t 25.75,96.375t 69.875,69.875t 96.375,25.75t 96.375-25.75t 69.875-69.875 t 25.75-96.375z" horiz-adv-x="384"  />
<glyph unicode="&#xf055;" d="M 304,144l0,32 q0,6.5 -4.75,11.25t-11.25,4.75l-64,0 l0,64 q0,6.5 -4.75,11.25t-11.25,4.75l-32,0 q-6.5,0 -11.25-4.75t-4.75-11.25l0-64 l-64,0 q-6.5,0 -11.25-4.75t-4.75-11.25l0-32 q0-6.5 4.75-11.25t 11.25-4.75l 64,0 l0-64 q0-6.5 4.75-11.25t 11.25-4.75l 32,0 q 6.5,0 11.25,4.75t 4.75,11.25l0,64 l 64,0 q 6.5,0 11.25,4.75t 4.75,11.25zM 384,160q0-52.25 -25.75-96.375 t-69.875-69.875t-96.375-25.75t-96.375,25.75t-69.875,69.875t-25.75,96.375t 25.75,96.375t 69.875,69.875t 96.375,25.75t 96.375-25.75t 69.875-69.875t 25.75-96.375z" horiz-adv-x="384"  />
<glyph unicode="&#xf058;" d="M 321,200.5q0,7 -4.5,11.5l-22.75,22.5q-4.75,4.75 -11.25,4.75t-11.25-4.75l-102-101.75l-56.5,56.5q-4.75,4.75 -11.25,4.75t-11.25-4.75l-22.75-22.5q-4.5-4.5 -4.5-11.5q0-6.75 4.5-11.25l 90.5-90.5q 4.75-4.75 11.25-4.75q 6.75,0 11.5,4.75l 135.75,135.75q 4.5,4.5 4.5,11.25zM 384,160q0-52.25 -25.75-96.375t-69.875-69.875t-96.375-25.75t-96.375,25.75 t-69.875,69.875t-25.75,96.375t 25.75,96.375t 69.875,69.875t 96.375,25.75t 96.375-25.75t 69.875-69.875t 25.75-96.375z" horiz-adv-x="384"  />
<glyph unicode="&#xf054;" d="M 274.75,176q0-13 -9.25-22.75l-163-162.75q-9.25-9.25 -22.5-9.25t-22.5,9.25l-19,18.75q-9.25,9.75 -9.25,22.75q0,13.25 9.25,22.5l 121.5,121.5l-121.5,121.25q-9.25,9.75 -9.25,22.75q0,13.25 9.25,22.5l 19,18.75q 9,9.5 22.5,9.5t 22.5-9.5l 163-162.75q 9.25-9.25 9.25-22.5z" horiz-adv-x="288"  />
<glyph unicode="&#xf053;" d="M 185.5-9.25l-163,162.75q-9.25,9.25 -9.25,22.625t 9.25,22.625l 163,162.75q 9.25,9.25 22.625,9.25t 22.625-9.25l 18.75-18.75q 9.25-9.25 9.25-22.625t-9.25-22.625l-121.5-121.5l 121.5-121.25q 9.25-9.5 9.25-22.75t-9.25-22.5l-18.75-18.75q-9.25-9.25 -22.625-9.25t-22.625,9.25z" horiz-adv-x="288"  />
<glyph unicode="&#xf073;" d="M 32-32l 72,0 l0,72 l-72,0 l0-72 zM 120-32l 80,0 l0,72 l-80,0 l0-72 zM 32,56l 72,0 l0,80 l-72,0 l0-80 zM 120,56l 80,0 l0,80 l-80,0 l0-80 zM 32,152l 72,0 l0,72 l-72,0 l0-72 zM 216-32l 80,0 l0,72 l-80,0 l0-72 zM 120,152l 80,0 l0,72 l-80,0 l0-72 zM 312-32l 72,0 l0,72 l-72,0 l0-72 zM 216,56l 80,0 l0,80 l-80,0 l0-80 z M 128,272l0,72 q0,3.25 -2.375,5.625t-5.625,2.375l-16,0 q-3.25,0 -5.625-2.375t-2.375-5.625l0-72 q0-3.25 2.375-5.625t 5.625-2.375l 16,0 q 3.25,0 5.625,2.375t 2.375,5.625zM 312,56l 72,0 l0,80 l-72,0 l0-80 zM 216,152l 80,0 l0,72 l-80,0 l0-72 zM 312,152l 72,0 l0,72 l-72,0 l0-72 zM 320,272l0,72 q0,3.25 -2.375,5.625t-5.625,2.375l-16,0  q-3.25,0 -5.625-2.375t-2.375-5.625l0-72 q0-3.25 2.375-5.625t 5.625-2.375l 16,0 q 3.25,0 5.625,2.375t 2.375,5.625zM 416,288l0-320 q0-13 -9.5-22.5t-22.5-9.5l-352,0 q-13,0 -22.5,9.5t-9.5,22.5l0,320 q0,13 9.5,22.5t 22.5,9.5l 32,0 l0,24 q0,16.5 11.75,28.25t 28.25,11.75l 16,0 q 16.5,0 28.25-11.75t 11.75-28.25l0-24 l 96,0 l0,24 q0,16.5 11.75,28.25t 28.25,11.75 l 16,0 q 16.5,0 28.25-11.75t 11.75-28.25l0-24 l 32,0 q 13,0 22.5-9.5t 9.5-22.5z" horiz-adv-x="416"  />
<glyph unicode="&#xe020;" d="M 368.275,208.813l-29.904,51.725l-67.48-19.301L 253.867,309.333L 194.133,309.333 L 177.109,241.237L 109.611,260.539l-29.867-51.725l 50.456-48.776l-50.475-48.795
		l 29.885-51.763l 67.499,19.32L 194.133,10.667L 253.867,10.667 l 17.024,68.115l 67.517-19.301l 29.867,51.725l-50.493,48.813L 368.275,208.813z M 224,120.184
		c-21.989,0-39.835,17.827-39.835,39.816S 202.011,199.816, 224,199.816c 22.008,0, 39.797-17.827, 39.797-39.816S 246.027,120.184, 224,120.184z"  />
<glyph unicode="&#xe021;" d="M 74.667,48A37.333,37.333 540 1 0 149.333,48A37.333,37.333 540 1 0 74.667,48zM 258.664,10.667l-56,0 c0,70.579-57.419,127.997-127.997,127.997l0,56 C 176.139,194.664, 258.664,112.12, 258.664,10.667zM 364,10.667l-56,0 c0,128.669-104.664,233.333-233.333,233.333l0,56 C 234.211,300, 364,170.211, 364,10.667z"  />
<glyph unicode="&#xe022;" d="M 96.525,26.123c 12.843-10.379, 74.667-37.333, 186.667,74.667s 86.557,175.149, 74.667,186.667l-74.667-74.667c 9.632-9.725, 0.747-13.347-18.667-37.333
				c-12.843-15.829-37.483-40.395-56.989-56.224c-13.627-11.125-26.264-28.579-36.344-18.443L 96.525,26.123zM 320.525,324.789c-4.48,4.499-14.56,4.088-18.667,0c-0.093,0-55.981-55.981-56-56c-4.256-4.293-4.2-14.411,0-18.667l 18.667-18.667l 74.667,74.667
				C 339.192,306.123, 320.581,324.752, 320.525,324.789zM 133.859,138.123c-4.499,4.517-14.597,4.088-18.667,0c0,0-55.981-55.981-56-56c-4.293-4.275-4.2-14.411,0-18.667l 18.667-18.667l 74.667,74.667
				C 152.525,119.456, 133.877,138.123, 133.859,138.123z"  />
<glyph unicode="&#xe023;" d="M 373.333,41.765l-0.709,0 C 366.931,67.824, 326.667,101.088, 261.333,110.608L 261.333,132 l-2.277,0 C 278.973,150.013, 298.667,181.075, 298.667,225.333c0,51.557-18.667,93.333-74.667,93.333
			s-74.667-41.776-74.667-93.333c0-44.259, 19.693-75.32, 39.611-93.333L 186.667,132 l0-21.392 c-65.333-9.52-105.597-42.765-111.291-68.843L 74.667,41.765 c0-0.691, 0.243-1.4, 0.429-2.109
			C 74.909,38.275, 74.667,36.875, 74.667,35.568l 2.501,0 C 88.891,20.037, 142.035,1.333, 224,1.333s 135.109,18.704, 146.832,34.235L 373.333,35.568 
			c0,1.307-0.243,2.707-0.429,4.088C 373.091,40.365, 373.333,41.075, 373.333,41.765z"  />
<glyph unicode="&#xe024;" d="M 240.389,165.451c-1.587,2.165-2.893,4.424-4.051,6.72c 0.467-2.669, 0.747-5.264, 0.803-7.784
		c 1.064,0.392, 2.184,0.691, 3.36,0.896L 240.389,165.451zM 277.256,120.165c 0.093-1.157, 0.243-3.061, 0.523-3.472c-0.075,0.112, 0.392,2.427, 0.691,3.808
		c 0.355,1.717, 0.747,3.64, 1.493,5.507c-0.243,0.131-0.448,0.28-0.672,0.392c-1.213,0.709-1.941,1.139-2.763,1.307l-0.523,0.112
		l 0.597-2.632C 276.957,123.507, 277.125,121.808, 277.256,120.165zM 255.733,139.411l-0.933,2.688L 254.8,139.467 l-0.056,2.632L 254.725,139.467l-5.899-0.336l-0.336,10.808c-1.941-2.837-2.539-3.957-1.997-6.365
		l 0.877-3.939l 0.131,0.019l-0.075-0.261l 0.075-0.392c 1.437,0.149, 2.893-0.056, 4.275-0.485l 3.397-1.027l 0.523-3.509
		c 0.747-5.003-1.549-8.475-6.813-10.341c 2.109-0.784, 3.267,0.093, 5.917,2.203c 3.509,2.781, 9.576,6.552, 16.856,3.92l 0.448,4.013
		c 0.187,1.661,0,2.296-5.189,4.816c-1.157,0.541-2.707,1.307-4.275,2.352c-1.325-1.101-3.099-1.643-5.227-1.643L 255.733,139.411zM 224,328c-92.624,0-168-75.376-168-168s 75.376-168, 168-168s 168,75.376, 168,168S 316.624,328, 224,328z M 315.896,115.368l 2.763,9.445
		c-1.195,0.691-2.24,1.68-3.061,2.856c-0.392,0.541-0.653,1.176-0.915,1.736c-1.269,0.616-2.296,1.363-3.099,2.165
		c-0.261-0.168-0.541-0.355-0.821-0.504c 0.784-1.381, 1.605-2.856, 2.371-4.331l 3.416-6.608l-7.317-1.307
		c-8.605-1.624-12.451,2.128-15.101,5.115c 2.483-4.331, 4.125-9.259, 5.712-14.075c 2.221-6.645, 4.275-12.973, 8.251-16.557l 1.885-1.699
		l-0.093-2.557c-0.691-19.581-13.328-36.045-29.68-40.637c 0.579-4.032-0.224-7.336-2.315-9.837c-3.155-3.621-7.989-4.088-11.331-4.088
		l-4.741,0 l-1.512,4.723c-0.56,3.752-0.112,6.907, 1.325,9.333c-0.523,0.187-1.064,0.355-1.605,0.541l-4.051,1.437l 0.411,4.256
		c 0.261,2.8-0.467,3.36-3.789,5.563c-1.605,1.045-3.509,2.221-5.115,3.957c-4.928-0.28-9.52-1.811-14.336-3.435
		c-7.429-2.52-15.941-4.872-24.117-2.837l-6.944,1.68l 3.453,6.291c 1.717,3.136, 1.773,9.184, 1.867,15.064
		c 0.037,5.581, 0.075,11.368, 1.568,16.24l 0.672,2.221l 2.072,1.083c 2.128,1.101, 4.293,2.165, 6.515,3.192
		c 9.483,4.536, 18.424,8.867, 23.333,16.557l-1.101,0.859c-0.56,0.429-1.12,0.952-1.531,1.493c-1.699-0.784-3.845-1.325-6.533-1.419
		l-4.424-0.075l-0.429,1.643l-2.408,0 l-2.613,2.763c-0.915,1.269-1.699,3.323-0.859,6.253c-27.888,0.803-37.931,22.437-46.835,41.589
		l-6.141,12.917l 7.392,1.12c 0.075,0, 0.149,0, 0.28,0.037l 0.187,2.371c 0.429,6.104, 0.037,11.256-1.232,15.624
		C 169.4,207.395, 166.693,212.939, 164.453,217.549C 163.203,220.051, 161.933,222.645, 160.533,224.251c-0.579-0.728-1.325-1.829-1.885-2.613
		C 157.584,219.995, 156.445,218.315, 155.176,216.952L 152.469,214.171C 147.597,209.187, 145.040,206.555, 145.059,198.285c 0.336-0.467, 0.765-1.083, 1.157-1.605
		c 2.371-3.136, 7.28-9.669, 1.792-17.715l-1.437-2.128l-2.52-0.299c-4.144,0.056-7.616,1.997-9.277,5.413
		c-0.168,0.299-0.28,0.635-0.411,0.952c-1.885-0.355-4.779-0.355-7.728,2.744l-1.213,1.251l-0.28,1.717
		C 124.133,194.888, 121.987,199.965, 119.653,205.304C 117.6,210.083, 115.491,214.992, 114.128,220.947C 110.059,222.907, 107.576,226.248, 105.485,229.067
		C 104.272,230.709, 103.171,232.203, 101.976,233.099L 91.56,233.099 l 5.581,8.493c 28.336,43.213, 75.936,69.029, 127.4,69.029c 6.421,0, 13.179-0.541, 21.317-1.661
		l 5.133-0.691l-0.541-7.616c-0.168-3.099-0.355-6.328-1.475-9.091l-0.728-1.68l-1.605-0.971c-1.419-1.232-3.005-2.651-5.133-3.435
		c-0.149-0.56-0.28-1.176-0.411-1.699c 0.224-0.28, 0.429-0.541, 0.616-0.784c 2.501-3.192, 5.936-7.56, 5.227-12.843
		c-0.299-2.072-1.381-5.096-4.965-7.747l-2.352-1.755l-2.744,1.045c-4.536,1.605-7.429,4.872-9.669,8.101
		c-0.168-0.261-0.373-0.429-0.504-0.653c 0.429-0.747, 1.176-1.512, 2.24-2.595c 2.24-2.24, 5.283-5.339, 6.16-10.677
		c 1.456-8.531-0.392-16.725-5.208-23.109c-3.845-5.077-9.221-8.456-15.288-9.725c-0.037-0.149-0.037-0.355-0.037-0.485
		c-0.093-2.763-0.224-6.496-3.099-8.941c 2.128-3.715, 3.789-8.12, 3.099-13.048c-0.803-5.32-3.472-7.765-5.805-9.912
		c-0.896-0.821-1.96-1.811-3.136-3.229l-1.867-2.221l-2.893,0.28c-1.064,0.093-1.979,0.317-2.837,0.579
		c 3.901-5.077, 8.307-12.021, 4.088-19.899c 0.392-0.84, 0.971-1.661, 1.848-2.819c 0.205-0.28, 0.392-0.523, 0.616-0.84l 3.341,0.747
		c 2.613,0.579, 5.003,2.931, 7.523,5.488c 2.165,2.147, 4.555,4.48, 7.392,6.011c-0.728,5.507, 2.576,8.176, 3.976,9.371l 1.083,4.723
		c-0.411,0.709-0.915,1.4-1.419,2.147l-1.232,1.773l 0.317,2.128c 0.504,3.547, 1.68,6.253, 2.744,8.643l 0.597,1.4
		c-3.901,1.755-5.992,6.16-5.805,10.248c 0.205,5.301, 4.144,9.147, 9.371,9.147l 2.016-0.187l 4.592-0.784l 0.056-6.365
		c 0.037-3.192, 0.131-7.112-1.997-10.099c 5.469-1.755, 6.627-7.635, 7.168-10.416c 0.168-0.915, 0.429-2.259, 0.691-2.688l 7.597-0.187
		l-2.091-3.883c 1.568-1.475, 2.576-3.509, 2.819-5.488c 0.112-0.84, 0.112-1.624,0-2.389c 2.203-3.155, 3.491-7.187, 3.752-12.059
		l 0.243-4.144c 1.699-0.504, 2.688-1.568, 3.229-2.277c 1.363-1.829, 1.4-3.715, 1.12-5.413l 0.467,0.112
		c 6.608,1.381, 9.165-1.96, 10.733-4.181c 10.173,2.427, 19.992-1.064, 28.616-10.155c 0.075,0.056, 0.205,0.112, 0.28,0.168
		c-0.523,1.475-0.56,3.099-0.112,4.928l 1.344,5.563l 5.507-1.643c 2.557-0.747, 4.331-2.053, 5.749-3.136
		c 0.579-0.373, 1.101-0.803, 1.699-1.139l 4.051-2.109l-0.952-3.099c 0.579-0.485, 1.12-1.008, 1.661-1.512
		c 1.307-1.307, 1.755-1.661, 2.483-1.773l 5.003-0.709l-0.075-1.643c 0.541-0.317, 1.12-0.728, 1.605-1.232l 5.787,3.472l 0.149-8.923
		c0-0.131,0-0.261, 0.037-0.392l 4.088-0.429l-3.379-7c-1.792-3.752-4.349-4.499-6.179-4.499c-2.184,0-3.677,1.12-4.667,2.184
		L 315.896,115.368z M 325.901,105.12l 0.672,9.968l 8.083-5.861c 4.592-3.379, 7.877-7.747, 9.688-12.992l 3.64-10.509l-10.565,3.491
		C 329.243,91.885, 325.416,97.224, 325.901,105.12z"  />
<glyph unicode="&#xf0e0;" d="M 448,206.5l0-198.5 q0-16.5 -11.75-28.25t-28.25-11.75l-368,0 q-16.5,0 -28.25,11.75t-11.75,28.25l0,198.5 q 11-12.25 25.25-21.75q 90.5-61.5 124.25-86.25q 14.25-10.5 23.125-16.375t 23.625-12t 27.5-6.125l 0.25,0 l 0.25,0 q 12.75,0 27.5,6.125t 23.625,12t 23.125,16.375q 42.5,30.75 124.5,86.25q 14.25,9.75 25,21.75zM 448,280q0-19.75 -12.25-37.75t-30.5-30.75 q-94-65.25 -117-81.25q-2.5-1.75 -10.625-7.625t-13.5-9.5t-13-8.125t-14.375-6.75t-12.5-2.25l-0.25,0 l-0.25,0 q-5.75,0 -12.5,2.25t-14.375,6.75t-13,8.125t-13.5,9.5t-10.625,7.625q-22.75,16 -65.5,45.625t-51.25,35.625q-15.5,10.5 -29.25,28.875t-13.75,34.125q0,19.5 10.375,32.5t 29.625,13l 368,0 q 16.25,0 28.125-11.75t 11.875-28.25z"  />
<glyph unicode="&#xe025;" d="M 201.245,117.552L 186.667-26.667l 89.040,110.003l 85.195-38.453L 448,346.667L 201.245,117.552z M 448,346.667L0,162.52L 105.765,141.333L 186.667-26.667l-58.333,168L 448,346.667z"  />
<glyph unicode="&#xe026;" d="M 329,132c0-61.852-50.148-112-112-112s-112,50.148-112,112c0,57.19, 54.838,92.33, 112,97.314L 217,160 l 140,98
		L 357,272 l-140,112l0-70.588 C 114.142,307.364, 21,235.558, 21,132c0-108.248, 87.752-196, 196-196s 196,87.752, 196,196L 329,132 z"  />
<glyph unicode="&#xe027;" d="M 382.385,318.384C 341.849,358.921, 285.856,384, 224,384C 127.974,384, 46.073,323.569, 14.22,238.668l 52.446-19.667
		C 90.555,282.677, 151.981,328, 224,328c 46.393,0, 88.384-18.813, 118.784-49.216L 280,216l 168,0 L 448,384 L 382.385,318.384zM 224-8c-46.393,0-88.386,18.809-118.787,49.213L 168,104L0,104 l0-168 l 65.622,65.622C 106.155-38.917, 162.143-64, 224-64
		c 96.027,0, 177.928,60.431, 209.781,145.332l-52.446,19.667C 357.446,37.323, 296.020-8, 224-8z"  />
<glyph unicode="&#xe028;" d="M 317.333,197.333l-18.667,0 L 298.667,234.667 c0,41.179-33.488,74.667-74.667,74.667S 149.333,275.845, 149.333,234.667l0-37.333 L 130.667,197.333 c-10.267,0-18.667-8.4-18.667-18.667l0-130.667 c0-10.267, 8.4-18.667, 18.667-18.667l 186.667,0 c 10.267,0, 18.667,8.4, 18.667,18.667l0,130.667 
			C 336,188.933, 327.6,197.333, 317.333,197.333z M 186.667,234.667c0,20.589, 16.744,37.333, 37.333,37.333s 37.333-16.744, 37.333-37.333l0-37.333 l-74.667,0 L 186.667,234.667 z"  />
<glyph unicode="&#xe029;" d="M 289.333,309.333C 253.307,309.333, 224,280.027, 224,244L 224,197.333 L 112,197.333 c-10.267,0-18.667-8.4-18.667-18.667l0-130.667 c0-10.267, 8.4-18.667, 18.667-18.667l 168,0 c 10.267,0, 18.667,8.4, 18.667,18.667l0,130.667 c0,10.267-8.4,18.667-18.667,18.667
			l-18.667,0 L 261.333,244 C 261.333,259.437, 273.896,272, 289.333,272S 317.333,259.437, 317.333,244L 317.333,178.667 l 37.333,0 L 354.667,244 C 354.667,280.027, 325.36,309.333, 289.333,309.333z"  />
<glyph unicode="&#xe02a;" d="M 175.583,349.583 C 186.813,360.812 196,357.006 196,341.125 L 196-21.125 C 196-37.006 186.813-40.812 175.583-29.582 L 70,76 L 0,76 L 0,244 L 70,244 L 175.583,349.583 ZM 420,113.123 L 420,76 L 382.877,76 L 336,122.877 L 289.123,76 L 252,76 L 252,113.123 L 298.877,160 L 252,206.877 L 252,244 L 289.123,244 L 336,197.123 L 382.877,244 L 420,244 L 420,206.877 L 373.123,160 Z"  />
<glyph unicode="&#xe02b;" d="M 314.794,20.206c-5.375,0-10.748,2.050-14.85,6.15c-8.2,8.2-8.2,21.497,0,29.698
		c 57.315,57.315, 57.315,150.574,0,207.889c-8.2,8.201-8.2,21.498,0,29.698c 8.2,8.2, 21.498,8.2, 29.698,0
		C 365.34,257.946, 385,210.484, 385,160c0-50.483-19.66-97.946-55.357-133.643C 325.543,22.256, 320.169,20.206, 314.794,20.206zM 240.196,59.804c-5.375,0-10.748,2.050-14.85,6.15c-8.201,8.201-8.201,21.497,0,29.698
		c 35.481,35.481, 35.481,93.213,0,128.693c-8.201,8.201-8.201,21.498,0,29.698c 8.201,8.2, 21.497,8.2, 29.698,0
		c 51.857-51.857, 51.857-136.234,0-188.091C 250.945,61.854, 245.57,59.804, 240.196,59.804zM 175.583,349.583 C 186.813,360.812 196,357.006 196,341.125 L 196-21.125 C 196-37.006 186.813-40.812 175.583-29.582 L 70,76 L 0,76 L 0,244 L 70,244 L 175.583,349.583 Z"  />
<glyph unicode="&#xe02c;" d="M 404.25,180.625l-39.148,39.082L 164.294,18.9L 203.377-20.25L 43.75-20.25 L 43.75,139.375 l 39.151-39.083L 283.708,301.1

	L 244.625,340.25L 404.25,340.25 L 404.25,180.625 z M 404.25,139l-43.75,0 l0-115.5 L 244.586,23.5 l0-43.75 L 404.25-20.25 L 404.25,139 z M 43.75,340.25l 159.664,0 l0-43.75 L 87.5,296.5 l0-115.5 L 43.75,181 L 43.75,340.25 z"  />
<glyph unicode="&#xe02d;" d="M 186.667,10.667l-121.464,123.312c-18.237,18.237-20.104,47.749-1.867,65.968s 42.149,23.8, 60.387,5.581l 50.288-50.195l 98.765,141.101
					c 14.784,21.093, 43.885,26.245, 64.979,11.461s 26.245-43.885, 11.461-64.979L 186.667,10.667z"  />
<glyph unicode="&#xe02e;" d="M 402.916,26.612L 307.475,122.051c 13.956,21.995, 22.050,48.058, 22.050,75.979

	C 329.526,276.45, 265.726,340.25, 187.304,340.25c-78.42,0-142.22-63.8-142.22-142.22s 63.8-142.22, 142.22-142.22

	c 26.535,0, 51.391,7.311, 72.673,20.017L 356.053-20.25L 402.916,26.612z M 98.102,198.030c0,49.186, 40.016,89.203, 89.202,89.203

	c 49.186,0, 89.204-40.016, 89.204-89.203s-40.016-89.202-89.204-89.202C 138.118,108.828, 98.102,148.844, 98.102,198.030z"  />
<glyph unicode="&#xe02f;" d="M 261.333,29.333l0,168 l 84,0 L 224,318.555L 102.667,197.333L 186.667,197.333 l0-168.877 C 186.667,8.296, 203.355-8, 224-8S 261.333,9.173, 261.333,29.333z"  />
<glyph unicode="&#xe030;" d="M 186.648,272l0-168 l-84,0 l 121.333-121.221l 121.333,121.221l-84,0 L 261.315,272.877 c0,20.16-16.688,36.456-37.333,36.456C 203.317,309.333, 186.648,292.16, 186.648,272z"  />
<glyph unicode="&#xe031;" d="M 335.944,197.333l-168,0 L 167.944,281.333 L 46.723,160l 121.221-121.333L 167.944,122.667 l 168.877,0 c 20.16,0, 36.456,16.688, 36.456,37.333S 356.104,197.333, 335.944,197.333z"  />
<glyph unicode="&#xe032;" d="M 93.333,122.667l 168,0 l0-84 l 121.221,121.333L 261.333,281.333L 261.333,197.333 L 92.456,197.333 C 72.296,197.333, 56,180.645, 56,160S 73.173,122.667, 93.333,122.667z"  />
<glyph unicode="&#xf00d;" d="M 324.5,53.5q0-10 -7-17l-34-34q-7-7 -17-7t-17,7l-73.5,73.5l-73.5-73.5q-7-7 -17-7t-17,7l-34,34q-7,7 -7,17t 7,17l 73.5,73.5l-73.5,73.5q-7,7 -7,17t 7,17l 34,34q 7,7 17,7t 17-7l 73.5-73.5l 73.5,73.5q 7,7 17,7t 17-7l 34-34q 7-7 7-17 t-7-17l-73.5-73.5l 73.5-73.5q 7-7 7-17z" horiz-adv-x="352"  />
<glyph unicode="&#x20;" horiz-adv-x="224" />
<glyph class="hidden" unicode="&#xf000;" d="M0,384L 448 -64L0 -64 z" horiz-adv-x="0" />
</font>
</defs>
</svg>
